# xmcd
#
# Track frame offsets:
#	150
#	16367
#	31197
#	51165
#	59425
#	69050
#	81752
#	93395
#	107937
#	120020
#	133910
#	143887
#	153540
#	166695
#
# Disc length: 2441 seconds
#
# Revision: 1
# Processed by: cddbd v1.4PL0 Copyright (c) Steve Scherf et al.
# Submitted via: audiograbber 1.80.04
#
DISCID=af09870e
DTITLE=Tom Astor - Weihnachten mit Tom Astor CD2
DYEAR=1900
DGENRE=
TTITLE0=Wunder dich nicht, wenn Wunder gescheh´n
TTITLE1=Mitten in der dunklen Nacht
TTITLE2=Stille Nacht - Heilige Nacht
TTITLE3=Leise rieselt der Schnee
TTITLE4=Weisser Winterwald
TTITLE5=Ja, Weihnachten möcht´ ich mal wieder nach Haus´
TTITLE6=Bitte du kochen mir grossen kalten Fuss
TTITLE7=Ein Bäumchen mit 10 bunten Kerzen
TTITLE8=Ihr Kinderlein kommet
TTITLE9=Fröhliche Trucker - Weihnacht
TTITLE10=Eine Ladung Weihnachtsbäume
TTITLE11=Oh Tannenbaum
TTITLE12=Herbei, oh ihr Gläubigen
TTITLE13=Ave Maria
EXTD=
EXTT0=
EXTT1=
EXTT2=
EXTT3=
EXTT4=
EXTT5=
EXTT6=
EXTT7=
EXTT8=
EXTT9=
EXTT10=
EXTT11=
EXTT12=
EXTT13=
PLAYORDER=
